<svg width="348" height="271" viewBox="0 0 348 271" fill="none" xmlns="http://www.w3.org/2000/svg">
<g clip-path="url(#clip0_1_3)">
<path fill-rule="evenodd" clip-rule="evenodd" d="M171.688 59.6458L173.224 59.2136C187.24 55.2813 201.807 52.9323 216.323 51.9688C241.089 50.3177 267.917 52.5833 291.526 60.5313C310.969 67.0729 331.036 78.5886 340.63 97.5261C345.885 107.891 347.266 119.26 345.594 130.698C344.385 139.083 341.635 146.995 337.026 154.13C328.557 167.26 315.146 175.771 300.563 181.396C292.911 188.172 283.625 193.354 274.318 197.417C260.182 203.583 244.802 207.76 229.734 210.911C208.927 215.266 187.573 217.88 166.406 219.672L166.318 219.677H166.234C139.292 219.708 107.089 217.302 82.099 206.385C66.3594 199.51 52.276 188.552 47.3854 171.406C47.0781 170.339 46.8177 169.266 46.5938 168.193C28.7188 161.229 9.01042 150.141 2.74479 132.099C0.130211 124.563 0.177086 116.698 2.01563 108.99L2.04688 108.849L2.09896 108.719C4.30729 103.01 7.32813 97.7188 11.1667 92.9531C25.776 74.7969 49.875 67.0208 72.0573 63.3594C85.8229 61.0886 99.9375 60.1979 113.896 60.0156C147.87 34.9688 188.906 16.4219 229.151 7.70834C242.839 4.7448 256.776 2.82814 270.771 2.17188L272 2.11459C272.688 0.848969 274.031 -0.0104065 275.573 -0.0104065C277.818 -0.0104065 279.641 1.81251 279.641 4.0573C279.641 6.30209 277.818 8.12501 275.573 8.12501C274.146 8.12501 272.885 7.39064 272.161 6.27605L270.964 6.33334C257.203 6.97918 243.495 8.8646 230.031 11.7813C192.198 19.974 153.615 37 121.068 59.9792C136.188 60.0313 151.333 60.8438 166.396 62.0521L166.521 62.0625L167.266 62.1719C167.323 60.7813 169.276 59.6615 171.688 59.6458ZM176.115 62.7396C176.031 62.9792 175.896 63.2031 175.708 63.4167C191.365 65.8281 206.99 68.8646 222.286 72.875C237.057 76.7448 251.891 81.6146 265.693 88.1927C285.74 97.7448 305.589 111.979 313.292 133.74C315.964 141.292 316.958 149.255 316.547 157.245L316.536 157.51L316.453 157.76C314.604 163.688 311.682 168.927 308.01 173.568C318.25 168.438 327.344 161.458 333.526 151.87C337.807 145.24 340.349 137.896 341.474 130.099C343.021 119.51 341.781 109.005 336.917 99.4115C327.849 81.5156 308.536 70.6511 290.198 64.4792C267.109 56.7083 240.818 54.5104 216.599 56.125C202.979 57.0313 189.307 59.1771 176.115 62.7396ZM108.24 64.2969C96.3646 64.6302 84.4167 65.5417 72.7344 67.4688C51.6615 70.9479 28.3125 78.2917 14.4115 95.5625C10.875 99.9583 8.08334 104.833 6.03646 110.089C4.41667 116.974 4.34375 123.995 6.6823 130.734C12.1979 146.615 29.7135 156.849 45.8542 163.411C44.5 150.24 48.5677 136.844 54.4896 125.109C63.6354 106.979 78.151 90.5156 93.125 76.9636C97.9583 72.5938 103.005 68.3698 108.24 64.2969ZM298.354 177.781C304.661 172.057 309.724 165.156 312.401 156.766C312.75 149.411 311.823 142.083 309.365 135.125C302.063 114.505 282.87 100.995 263.901 91.9531C250.339 85.4896 235.745 80.7083 221.229 76.9063C203.115 72.1563 184.542 68.7917 166 66.1979C149.385 64.8698 132.656 64.0208 115.979 64.1615C115.755 64.1615 115.526 64.1615 115.297 64.1667C108.521 69.2083 102.042 74.5156 95.9219 80.0521C81.3385 93.25 67.1146 109.333 58.2083 126.984C52.349 138.594 48.276 152.094 50.276 165.135C52.7344 166.057 55.1302 166.896 57.4115 167.651C72.7708 172.755 88.8854 176.313 104.802 179.167C124.036 182.609 143.5 185.057 162.932 187.036C182.984 188.682 203.214 189.656 223.339 189.292C239.865 188.99 256.703 187.797 272.958 184.708C281.24 183.135 289.979 180.948 298.354 177.781ZM166.141 215.51C187.109 213.734 208.271 211.146 228.88 206.833C243.661 203.74 258.786 199.651 272.651 193.599C277.906 191.302 283.198 188.625 288.172 185.464C283.328 186.807 278.474 187.901 273.734 188.802C257.245 191.932 240.177 193.151 223.411 193.458C203.146 193.828 182.771 192.849 162.573 191.188L162.531 191.182C142.99 189.193 123.411 186.729 104.068 183.266C87.9531 180.38 71.651 176.771 56.099 171.604C54.5365 171.089 52.9323 170.536 51.3021 169.948C51.3333 170.052 51.3594 170.156 51.3906 170.26C55.9219 186.151 69.2188 196.214 83.7708 202.568C108.146 213.214 139.854 215.531 166.141 215.51Z" fill="black"/>
<path fill-rule="evenodd" clip-rule="evenodd" d="M175.531 104.818C189.333 104.818 200.526 116.016 200.526 129.818C200.526 143.62 189.333 154.813 175.531 154.813C161.729 154.813 150.536 143.62 150.536 129.818C150.536 116.016 161.729 104.818 175.531 104.818Z" fill="black" stroke="black" stroke-width="0.288"/>
<mask id="mask0_1_3" style="mask-type:luminance" maskUnits="userSpaceOnUse" x="49" y="240" width="254" height="31">
<path d="M49.3333 240H302.667V270.401H49.3333V240Z" fill="white"/>
</mask>
<g mask="url(#mask0_1_3)">
<path fill-rule="evenodd" clip-rule="evenodd" d="M71.9948 242.109L71.8334 245.63C70.7084 245.172 69.6198 244.823 68.5417 244.589C67.474 244.359 66.3854 244.24 65.2813 244.24C61.7865 244.24 59.0156 245.26 56.9636 247.302C54.9063 249.344 53.8802 252.094 53.8802 255.557C53.8802 259.068 54.9011 261.828 56.9479 263.833C58.9948 265.833 61.7865 266.844 65.3229 266.844C66.4427 266.844 67.5313 266.734 68.599 266.526C69.6615 266.313 70.7084 266.005 71.75 265.594L71.8698 269.229C70.8646 269.557 69.7865 269.813 68.6406 269.979C67.4896 270.151 66.2813 270.24 64.9948 270.24C60.2292 270.24 56.4792 268.943 53.7292 266.359C50.9792 263.776 49.6042 260.245 49.6042 255.781C49.6042 251.271 51.0104 247.672 53.8125 244.995C56.6146 242.323 60.3854 240.984 65.1198 240.984C66.3854 240.984 67.599 241.078 68.7552 241.266C69.9063 241.448 70.9844 241.729 71.9948 242.109ZM125.563 244.63L119.792 259.427H131.151L125.563 244.63ZM123.167 241.068H128.12L139.521 270.151H135.12L132.318 262.688H118.479L115.677 270.151H111.563L123.167 241.068ZM181.302 244.24V255.115H183.943C186.099 255.115 187.75 254.635 188.901 253.682C190.057 252.724 190.635 251.354 190.635 249.563C190.635 247.891 190.104 246.583 189.036 245.646C187.974 244.708 186.464 244.24 184.516 244.24H181.302ZM177.229 241.068H184.474C187.938 241.068 190.536 241.792 192.271 243.224C194 244.656 194.87 246.797 194.87 249.672C194.87 252.396 193.948 254.51 192.094 256.021C190.25 257.531 187.635 258.281 184.271 258.281H181.302V270.151H177.229V241.068ZM231.891 241.068H247.641V244.198H235.964V253.427H247.005V256.703H235.964V266.802H248.021V270.151H231.891V241.068ZM301.365 241.833L300.953 245.396C300.052 244.953 299.13 244.625 298.182 244.411C297.24 244.193 296.24 244.083 295.203 244.083C293.443 244.083 292.068 244.411 291.073 245.068C290.089 245.714 289.594 246.615 289.594 247.76C289.594 248.661 289.927 249.479 290.599 250.224C291.266 250.953 292.708 251.932 294.917 253.151C297.797 254.729 299.781 256.167 300.875 257.469C301.969 258.76 302.51 260.24 302.51 261.901C302.51 264.375 301.609 266.401 299.802 267.979C297.99 269.568 295.672 270.354 292.828 270.354C291.453 270.354 290.141 270.245 288.88 270.026C287.625 269.813 286.448 269.49 285.359 269.073L285.766 265.156C286.969 265.786 288.125 266.25 289.245 266.547C290.37 266.849 291.458 267.005 292.521 267.005C294.224 267.005 295.604 266.62 296.635 265.854C297.677 265.094 298.193 264.083 298.193 262.823C298.193 260.875 296.156 258.745 292.073 256.427C291.391 256.042 290.875 255.74 290.516 255.526C288.958 254.625 287.734 253.526 286.849 252.229C285.964 250.927 285.521 249.599 285.521 248.24C285.521 245.969 286.385 244.172 288.115 242.844C289.839 241.51 292.188 240.849 295.161 240.849C296.266 240.849 297.344 240.932 298.375 241.089C299.417 241.26 300.406 241.505 301.365 241.833Z" fill="#1B1918"/>
</g>
</g>
<defs>
<clipPath id="clip0_1_3">
<rect width="347.2" height="270.4" fill="white"/>
</clipPath>
</defs>
</svg>
