<svg width="300" height="300" viewBox="0 0 300 300" fill="none" xmlns="http://www.w3.org/2000/svg">
<g clip-path="url(#clip0_2_17)">
<path d="M279.94 152.312C279.94 223.997 221.815 282.129 150.117 282.129C78.4184 282.129 20.3003 223.997 20.3003 152.312C20.3003 80.6006 78.4184 22.4891 150.117 22.4891C221.815 22.4891 279.94 80.6006 279.94 152.312Z" fill="white"/>
<path d="M149.977 0C233.921 0 300 67.6276 300 149.997C300 232.853 232.82 300 149.977 300C67.1472 300.007 0 232.853 0 150.003C0 67.1405 67.1472 0 149.977 0ZM149.643 181.455L107.688 42.2356L53.36 220.481H63.5502C63.5502 220.481 70.4037 189.476 81.5482 170.958C87.6143 160.901 96.9636 152.679 109.463 152.906C118.265 153.08 125.893 157.891 135.415 171.211C141.141 179.186 149.957 199.533 149.957 199.533C149.957 199.533 158.779 179.213 164.525 171.211C174.021 157.891 181.648 153.08 190.477 152.906C202.963 152.679 212.332 160.901 218.372 170.978C229.523 189.469 236.37 220.481 236.37 220.481H246.587L192.226 42.2356L150.277 181.455L149.977 181.702L149.643 181.455Z" fill="black"/>
</g>
<defs>
<clipPath id="clip0_2_17">
<rect width="300" height="300" fill="white"/>
</clipPath>
</defs>
</svg>
